<mxfile host="app.diagrams.net" agent="Mozilla/5.0 (Windows NT 10.0; Win64; x64) AppleWebKit/537.36 (KHTML, like Gecko) Chrome/130.0.0.0 Safari/537.36" version="24.8.6">
  <diagram name="Page-1" id="uj9Sr8uHIqRrCGYe2wZ6">
    <mxGraphModel dx="1235" dy="614" grid="1" gridSize="10" guides="1" tooltips="1" connect="1" arrows="1" fold="1" page="1" pageScale="1" pageWidth="1169" pageHeight="1654" math="0" shadow="0">
      <root>
        <mxCell id="0" />
        <mxCell id="1" parent="0" />
        <mxCell id="twi5Ww_-Sr2ukIrTY0NY-9" value="" style="rounded=0;whiteSpace=wrap;html=1;" vertex="1" parent="1">
          <mxGeometry x="300" y="270" width="530" height="140" as="geometry" />
        </mxCell>
        <mxCell id="twi5Ww_-Sr2ukIrTY0NY-1" value="" style="outlineConnect=0;dashed=0;verticalLabelPosition=bottom;verticalAlign=top;align=center;html=1;shape=mxgraph.aws3.athena;fillColor=#F58534;gradientColor=none;" vertex="1" parent="1">
          <mxGeometry x="320" y="300.5" width="76.5" height="76.5" as="geometry" />
        </mxCell>
        <mxCell id="twi5Ww_-Sr2ukIrTY0NY-2" value="" style="outlineConnect=0;dashed=0;verticalLabelPosition=bottom;verticalAlign=top;align=center;html=1;shape=mxgraph.aws3.redshift;fillColor=#2E73B8;gradientColor=none;" vertex="1" parent="1">
          <mxGeometry x="450" y="302" width="67.5" height="75" as="geometry" />
        </mxCell>
        <mxCell id="twi5Ww_-Sr2ukIrTY0NY-3" value="" style="outlineConnect=0;dashed=0;verticalLabelPosition=bottom;verticalAlign=top;align=center;html=1;shape=mxgraph.aws3.emr_cluster;fillColor=#F58534;gradientColor=none;" vertex="1" parent="1">
          <mxGeometry x="600" y="308" width="55.5" height="63" as="geometry" />
        </mxCell>
        <mxCell id="twi5Ww_-Sr2ukIrTY0NY-4" value="" style="outlineConnect=0;dashed=0;verticalLabelPosition=bottom;verticalAlign=top;align=center;html=1;shape=mxgraph.aws3.kinesis;fillColor=#F58534;gradientColor=none;" vertex="1" parent="1">
          <mxGeometry x="740" y="296" width="67.5" height="81" as="geometry" />
        </mxCell>
        <mxCell id="twi5Ww_-Sr2ukIrTY0NY-7" value="" style="endArrow=classic;html=1;rounded=0;flowAnimation=1;strokeWidth=2;endSize=4;startSize=11;jumpSize=5;" edge="1" parent="1" source="twi5Ww_-Sr2ukIrTY0NY-1" target="twi5Ww_-Sr2ukIrTY0NY-2">
          <mxGeometry width="50" height="50" relative="1" as="geometry">
            <mxPoint x="405" y="336" as="sourcePoint" />
            <mxPoint x="445" y="336" as="targetPoint" />
          </mxGeometry>
        </mxCell>
        <mxCell id="twi5Ww_-Sr2ukIrTY0NY-11" value="" style="shape=image;imageAspect=0;aspect=fixed;verticalLabelPosition=bottom;verticalAlign=top;image=data:image/png,iVBORw0KGgoAAAANSUhEUgAAAToAAAIACAMAAAAllVA4AAAABGdBTUEAALGPC/xhBQAAAAFzUkdCAK7OHOkAAAMAUExURUdwTCIfHygaKCEeHyEfICIeHyIeHyIdIQAAACEeHiYeIiIeHiIeHyIeHyIeHyIdICIeHyIeICIfHyIfICIeHyIeHyMeHyIeHyIeHx4eHiMeICIeHyEcHSIeHyIeHyIeHyAfICMfHyIeHyIdHiAcHSEeICQfHyEdHyIcICMeHoeDg7e2tZaSklZTU9TQz5ycm7KvrjQyMzApKkhDRS0pKqimpnBsbHp3d3d0c2FeXT88OkxISMfCwmZiYr+4uDk0NKmlpqKhniAfH4GDiaOlp2NdWqmnpiMfINM4M/DWtzNQYf////fkzdzZ2Elyi+89OgAAAG1rbYGwxCQfICUiI/bjyy08Ri9BTUNof/Xgx+/VtjJMXCs2PvHYuiwoKCUmKf7+/vTewikgIDItLfPbvuo8OeLJrUc+OiYpLdE3MyoxOFBHQsw2MmIoJ0hDQ0AjI7gzMMc2MlElJbmljzAhIcA1Mfv7+z1dcSgtM7SyskBieDtYajo1MzBHVS8qKkclJbAyL2opKCkkJeM6N6COfFonJjdTZKuaiIAsKu3Ttejn5zcxL+jOsWVbUogtK5eHd863nu7t7MGrlDUhItW9o7Ofis7My9vDp+Ti4XZqX6gxLXRxc8iymXMqKTUxMn98fnBlW9TR0R0ZGUI+P/Py8jdJVjw4OY+NjdvY19s5NZ0wLZQsKWtoaUdvh0A5Np+cnYuIiElxiVxSS6MwLVZMR6mmpmFXT0ZshN/d3NjV1Xl2eGxgVoF0Z6aUgYd5a5GCc/f29lNQUTkjI7m3t5SRkXorKa6srE1KS+vStF9cXY8uLHxvYqShodHBrpmWl8XDwot9b8nHxnBtbpguLGdkZbytnE8vL2RhYr26ultXWIaDg4YjIMC+vnEdG4Csv9vKtsa2pbGjlFdUVefVwG9IRwoCAmA8PBgGBZ2RhHqDkF8YF00UEuzaxG9XXCQJCDAMC3aVpeHPu/HeyHuluD0PDoGkt09odWKEk8OYg9rZ2opbUat8bJxpXKNwYpFgVSgZGcDevfAAAABHdFJOUwD8BOQUe7o0AagNwZnshTyRJUkdobEu9XIIUlnxaUNi1cuL0freOMfX2srey8Tg0tbU58jX08Kxw7/Pu9XM6NG+ydzo+eT0FB/rrAAAIABJREFUeNrsXdtLG+sWb701ptXWbW29VNtatz3739gvQ8AgQzIPCSSQkzQ+BLI5R86DEHLYwUOOVI8iXgi6NSJUOQRbggpqVaRidWu8HaUXCmp98cEX/QtO5v7N5ZvRzGRm1K4Xm5COMz/X9bfW+nLrltElp7Tk0f2fKqtwqaysqS8pNZtu/RAJMZXWVNc+LHhWhAjldu7LwgflVY8qfsDEE3NNeeGLx4i82H4tq31a8kMHSV0rqS78FbmcFBXk15hvOG55Tx/mIpnJ7bv5j26s9pVW37UhiiT3Xk3ODdS36ruIGpJbe7N0r6Ky7Daimjwrvyl+z1R/rwhRV57Ult4EQy3/C5IFuV346JorXE3hRQx1IhlbjB7tH6YOUqnDw/1o50I84JUF79411jxztbzCuTs6948bOIKRP05T0YWkJICPi6+pz8srlvVwr2P75w2Sgp0dvQ/CM5qiyusIXK1smTV55GiQl7QOnh6th2AXeZh33Uw1/4kccHOphksIluoMQPK8n65VcKjKvQBwWMMl5exkUvRaD65PgXHnpRxw06mGzORgW8xyX16TUFv6kP9kdt7rwOHlNY613P05u9Bo71wHJ1fMiw5DiY2RrSUwhzvKHDfKcLcFKcvjKx9pc6q5+YgXXRm3pmWHTeM6zxuUy/nJBB+8/CvNCZgqf+HY6ZeNGSspy/R7sbNLGSfmAAQDtdURbbpGweIOh1QaGt6hcLOOvIuQ7wUPLwSYw+Hx+Hwul0UoLp/P4yCzQSzKixhlFdciOgQ3aYWzTq25KVs9wWRB84gjJkTQg+FmG+ZgV3AlyzJzPhgdvpMejpC3dBXVIWmr2AVBY8Tp8jmw4xgHu+dXr7LgpsBfWhjcrH0DFHJeibiKOXyXQg3QPs/+axC7F1cNu5IC4O6XAOC+jQVplTtWHTZK/EkOf3ylsKsorgN83BSD23jL8N4Q+W44ClE5h8+iWNoWrip29QAl5x1jgsPM1Cz6nQqskwcQ9+ayqCLzkauIXU4xy6XZdvsYjVuZRVHaWLcd2VI4WprdV8/flTxnb3m0hTXVNHAJKuvy7osC57KoKYNgZfbyKuQoVWxGYh9mbHXrK4qie9TDBA+yDxwfuwLD58Y5tWIqN7KZBg5NUI8SP9UCOBw7MDsuNHhNZgZSkt0RGrkPszhy6Bvy/UVhZMV8lqxINxgrHhi78HrBsiFvGZVbJoBDPxLvR6JClfNYsiW9II1XbmTkfmaN9TOTApMqh34insJ9qJnKEdIKTuVVXgXkvjPGOrVLIocSwdV7qI2XY+U9yH0adTYgjyXmdulKf2aMAg79TiCX0lTlCEagA8DuZ2OmdxVs3+YrjVzfMI1cAk9Qw0LkXJZsQ9cO0p8FRgyzpnvM/Y0xydwsjRxRRQj9nMOigfSA6V2xAaGrZpzxMhMgBhjk8Bhh39cusnJLMnDGwni97RKmhnjHZHO7DHJEjIjqhJzLtwgOpBjN3ZmYFsSsGHJ433CBj5xPC9x8OM2AgaGizGRQc92jI8Q3ALm9dFKfxHRAzkf90mOwzfjUWPUX3WkN0vncFuvnUHQonZacaY+cy8HO9QAV2RNDmWw+TWtu0VnJLIAcHl33tUfOB+g5dgKOkBkpGaZjxAadCQ/zkIvpgBw3gZwDsLtvHOjKqVv6RIeIZcDP4XyJ91h7a+X51lPA3d01TKQwURWYl+LSx8eCIbcNsXvfjI6G8KLfdnLRrMTlw2chHCo0KAQEPujuDJPc1YBVxPhKQjByNIFdrIZg/bpiUoA2V+xwOznhDYcC8ROACLhrFOioEuzNDN6AEJsSjF6obnU5VOQFqBEU4fCTobydicpMZjcT4nPRIa7SQZDzqJkyu8hxzwBsgrTMGNDdkd2COJVHBPTqx4fRk+jhqRJWhbDXgxB8F9kQ07J5hbIbJFFZR8eq3MEinszY7Ii9Yz9z6PDrnTdJ3FKtAVg62EB/eGlgbOrDGPHvpJyjczBZP1htIh1+Ja6uU3KDW3fi7s4zUdjWlr+RtWwf0ZCInEqbK43cWZx3oSZ/5tBhIUlL0LtPUVUngltiih2ksxK8OluGOSSQw6Jh4UJA5tClpJ2IzoEiX3hHweURKyhfyQkT2iAl/NxpXOwJBzP2dUe4y5xciHZ3N8+/nxTsBtTpSgJUCx70I6hwhGyQTkvCXKnk9SwoqhydmUZYrBWJrPezE3et/ERFT+6pkr8b+GaDA1xfy9uvAwnSZ8HNlcpKUhDPlCF0FswVberhjVEkuUPG+iXCpbzQCszmWK0jLcsU7USMatkxaDJMOroUbMW1O+NOmL9d2KQAa4s63Wafcng7X0Gm3W+daXm3C9KcaTmFVf2kuR6Aw7/u6e3ewZ7+nsHezvi0U1U6pT1mhBjLc3TsbE7fJkgQUzM6B7AY4eDz39O9q9nkooBhT70YzzzO8pKdaSBujaFcGSU+kILECKLWxKaZCyW7ss3jdTPDnkUmA+QlbnrOum8ZRWHQwRMTJu33RrNPgToHGez0mUAxg0oXpkYQx6d2UTh00DoiRedcgX4t2ovOZruuQ2Ogp3NTyPV9RVEYdAfiSmfBzZXeok62a9PStmzrWVCYXgB+boVE7vOAGHJUmDgVVzrc1e3T8WFVI+QsbQEdnR1I0VHDOSsoCofOjmFQWo1SuoBWOoe7Ox2dXTGL3BpZQUxBkCPzuglIJycN3QF1uInfoqFQ1Fa1DtCxyzjuHWnk0DBJ2Llg0JGjNPZuLZGzdJM3f0+HsSZW6YYJ5FqgyKFEChpzQHlw0u8saIqcxUkSyC+0h+4pq3RE63VrF4ocWf63wppgDacEh9C0qi10VJC9rf0aCrtbnRCMSfBkjaQ6oQTHobIiP1PpIm9f++M82HlrIjHZhCNHTl8j0BjgOSJO1dEaOYszpA9nZ2aIuiE8vG5JIEfumbyGtwVx6Ow9mkNnieuzwFPPKN0ewaFLQTcq02HALSemPXLUKkqBflECJ0w+SyFHLppsS1jOpC5KRzm7XP0SYpzefCcJHUFTNEs8g78jrgNyljaSt9OaKWba/ZEZGU9H5SZ+6S7CRdy6Cmit9oKvmnQpxZgt61H8yBJJ6IjcpEn5Yy+0Kb9Gv71fUItpTbIzW3RfrNbxWUnoiNPCVLDIiVYVoEPWwT+GHpSdidku2bVav0kiR56SoMJjhyfaVIAu4ueHWI2zEzNYwG5IQ0dQTir0G9xIr+Lh4jZOqG/Wg+0sBak66fiK4u1Vt0KFwU+5CiGTCoFzNGBuxNvOy06e68WbbFrHd6Whw9sAih7a5SG635Pyuut0yszbNTSBwwR+PRK7Sga6t9YdaeT28E+tK9IVUt7LXqY3HIKm1tRwxhyCsC6zjagmbZqO2d1nzzHZsH6Qhu4L/qn5zE2VmZJNl7puaQY+HTE7pJEjmpZsu5Ic1dBy3gkcqZuSYIfZ3CTjKAHs2xzb5AL1NoLY2+EjnrjgBFeAMesJrXPicrB1PSWTEBO5iX1VOXKEs2uSLCk6oQUfM6d87gY/Q9LTNZqldA84gyYb1mVp6EaV1BKclQF8PU4yP5mH0gzsdebAoJXUtJyo4A2rv7WOyad102ooXcNxBDQ2SKdmUuY6RyAj3aEl2VlRwBt+25SDbkhBgOWtoMQ5Pl6EgYGNz7LXwc7D6Zia5JCd2hyjYOYjhyxfJCNeVAc63MeHpIIsPqLXIREkcIkB+K6Te8UlWiAn/Nqqd3JaF1aQm/AXnyZlNBg3QFuXJHQYUUJQakdt2+VmHzuzyMn9w3Jhwi3Dc17c11GzKb3SIVbMsTrAsywDLPNKD+0UZTs/yXsuMug7INkMo6AbzDTC8jZaMfyxI9CrOXsQcULaB55lifMltqCTgVoD7MxiyCF7csRJWElGzN+jJtQuDG/ZEjluk5Br8DkczG5yu5upb9gzxrKKHTe2/oulOlfkw4QCysnDPTs2SZ5/J1GKyW8LxJjZoHlgYSx7/i6nDETuP39jNkyoGnZt6WMwGPz4/ZNYcqKks4+fC44Rh/170vbWRYxj2mHYkRbrlhwN7SITYTzc9ILf6pGtHU8T5xD6Pxtf/ZXeMbHuoImlELtEZH+zlOCnxIo5Sp7KIHaYvyMn9cQSFGd7f1d3dDFOT8rbummuk5JfskMDmGq5yDU2/p0eIrbujPKXr+yje9xCrFM96Pwk2wErZqPU9i33/8zHA68FG2Ixi2WQe8h9VtqKnGH1/6WRa/yd/uPNukWChz2YAMcm1tWDjnbtkHynjVAqm5fTu5wT3TrtZyZ2snmyXRX4C/6LI9f4B7MHDlkjXgN6iRmTxKvdXfzqgTpObUEa2Q5QK9dF7i/SzLhG4Mwd1SeL6+t41gpoHVTsS2wHO5xp+zmdeNlC0wvRHjrf6IrbGHMTB5va0ZvnMSr8v2wz2SDjfxGP2j0ccEHi3yRyjf+U/5rNj4qzEyezqxhpmo6vxzrYbaj3UswTHmUBqt0fEXy1YA/QnADtpkrdVBiY8kf+oJD7x0W+qnWJ4TozbMP2wK8NLYud1FJtAKBXF3knh7RSVtBOvPwNwK6uPlsJ3e+vSORe/SYMDPH/M3c1rW0kaZg4WTKTnezsTHYmk4/NzJDs7v/IRW0whKXlgxsiiGVJGPlb9s04jqQgC0mWkCWEjLII9mRn8cEWvkiywBDwRAQMmZwnIZcc5hL/gpG6q6verq7uqu6Wra1jhincj97P5/2o1ulR1fD4qP8X3di5bDwsWJuDii1rR5WSFLhedy6JQdWgW9o8p/AOhiXPEXLESaAPqX/4HT8idwiGeP6HurAz7oxdNmAF3Sm35dAYTRZzaht9cL8DbYcKnbwkvYIhysCai2+DW58mEHLbRuCOjEvCwLM2c3pk59LYdSyQ6yr80M+3ZqgsKpVCKUz9byeaQEjS7Dm42W/AnPWWhJALbRlMrun5g9+wNff/inqJXQbFBk0jv1XHXohT+p4P3vSPprCzkjS9BK4fzBTKLeAiJlcQco/W4XccMZ7H+ZyBXvZXD9WJ0aJ5J9MeNyXWY+CmIgLdM0mSFoHxfjCQpnaYuW7ryD2C4v2J+TrOe91pBVB4sua+6aRwFAXBRaCR5FcmwxmxjQthDJ20sAx2jQ8gI/sRkiUYucQkBzmtywHNjyEGwDXbqaZXpVg73+nk27GSmL8pop/OHxOA7lUfOulAHuTy3e/By3OzGDmory0gaWeQ0v24BmK7np+QB8gACLWA6kPddv3dipZNbKjQSZsDNHfQ0M0nCHTElUd1tM5S+704IpNL4c1Num/8L5K6Cx4pSTdEXIUWN25q0EE3+8AjaQzGNicXCXIkB/O/0Zd/4V1nwfzUBK43q3xez034B9NM7Mg1Y3N3aGNlNdLpLYJuBriK+56iu68vkZsOAHKY5cTq+h5GrnMlrR8OBab/+fcvapjlT18wdkW/Oaugj0Z1HiDopIXJwSy3u/YPc+aqnhmckqNI+CNc7iL7gr3YoQceGkqXdet74UMluGZjnUBrBPu6Dp30FnyHh1WeX4EsIgShw16iCuvpcIdC35tOnVHr1GIXDd2o/ndZu1mNZVnA0EnPBhGhfAsM3TRE7tFr/XdBr2587mnGHtyUJGuT6E1BquP8XUWgZlfy9i0S6KC5czuffe0yRajjs6On/hncKBmpGZ/+0coqSSN0yQuHbjSs/6CZkk0IMymBsy573r4LmuieG5HDQq3rayPaEzJlz6SdBrJNnstePHSjhYD91sqqlprDswFKZK687FXiXZd3IHIJEv6gRGJcXeuCakuZPe1Xi/Z9HPQezWEg13OheGtP1qq9x/fUAB0kAtx0j43cZ6WuGnKSXvhHpu7sDLNDmaIyWprDSyLxptdgvTY6pKN3lcjM8C6KOCcI3QqJUC65CIxBt/AziFxIAtC9gWtLc7iuHF7VSwep3OFhs3raLiijQzsKdv85htyt4uwfnE0vzwPcuMlW15AhX/kMd/hHSK4V81188mDjZjFp3TDZu7QfpLBMlXVc5fmSLrpC5LCb+Az2lipxELn1ezrk7P8LdllM+O3RflbL/l9T0MGk4rLD4O5rgtyS0bmq5wUF3WPEGeKRhZrPK8k02BAlguPNAqsAtE1DB72sM0/xxc/sYHiHuvgN2DMcNuhoYyjJg+WpYFdPbY3SkokVE3TTJDB+4Kh37A6L3tScq3peov/4DniJioFDj3E6zS/6YCaA6gdX+2HlaRN0EilbXXIy8nmL5BHzIZOhA/d+Aiuaw4ZWBiU60L4wbgfeBO9RD534pIbB1VTxWGKcWVc5BWhqWmCoqyStGLMJtc20P+N3ZDAiF7hnaIL7amV2jQmd6kCWWNCB4O5fwgHKlbvMDCwB7kUFkDn4YEnQWFVuXSDHNCXw+qIe3Rn6o5Q1Vlhn8hTCc1Ck2C/PsNQVxD0aXYd/QGhH0l3lYoXO+tEZA3cXM8cmm0zoZo4xDj8Jdt1ducniN0OGa/Xo5ANQlOpAWzcdWTqRd3hQUTueNXPEu0zoIOt5x6nQTe6wDB28tQqgSw4NuimR91KTPkaPcd4iNtEO6YJ7OOJQ6F6zDR3wE2tnBLqK+0GwAemr7YaeurmBB/3j5LQFdNsO31YgQrcFAhP61mMQ2T3B3mpI0I0LeIm0FhQHjexJxEw5wfOcEHcjjoTuraXQkSw2B/7ktm3f1jmmWSKPtaVYTbRZP+rVsTjrjqwdU+hCpkt39XrJbwS6dORoGMjF9gWeCExHGPqKNhNvSAJid58b2127yxK6HbPn1gPGIxCKFoahsEpE/sh7UDuL34UpMbzEgTV0Cw7epvyBJXQJmzwl8BHsVU8PAble2vLBXlnDR0GLZ7WadDnMRux4b1OOPGQIXYh1566PiN1QE/tu70+wU9ZKF/eXxU9PGBTxlg1y0NpdFe19BUK3w7pzeplYu6lhQhe1HWcpVeN0uz+dSzy3gw6I3Zf20P2ZQTaF2HfiNuzD8SfDhG6VzhBgJbFJxsKCbYVd+X9lC9224JNjV1mJxA77zhVc6f0wPkzoglbMoBIDz175u2ErRuDAFjqQUvxJrPn1ha2PMIry2m+Phyt1voaZaQjn4QudDWb7/B7XSxgyWbu3Ka+QQbAZntBBC9qYGq6tM7VkpMtNONgUKTNJHK03Yd4eOWn6WIR7+juDp0uIWND6EMVO1Tr/KTZ3SqndNHRYrbZNMZOSJoTALAc6wNvZrH7+mUEO29y5QPpaTi24uVIqdt6olvUX21qdfP60up+hHkhNmoBLt3NpvebOKCTSZ5HQxZYTUN+TioSI0Bla0VoM7JRUpP+M8zn732zQZz2X2zCrqtLe09zKSYBureN+5l/4rU2vRYSu93uAQYO6KUAIq0V3+d3YOWN3ZDVElmmZnYNSjugLtWI+bkBMGXX5skUiewvPvMo7QkJn4FF9EervrK1iIvl8dTabYeJWjTHSwlq/PizXQGgyy4cOxCf3eMXXWTGh63kfOLRjCJ2UZJyUuc9Z7GL0OoRMLs/sDyrkAPGEGtheC0C3yXtgkQy9rgsKnXGuqmfXqkUFsTk4Gp0b51T5BnBSjUhmLRAPBPeih918zGJOtlTXIEb7FNDM7IoAdMRR3GW2Kl57YE5f+bfCuSo1PG5Uq9Um6e/0vx8bHHSVskCRzcrXV3XZTGHawKp6bROG3bbX1w1hoevb0EnbAfZPlm9fuyGYopG8q4fGlGIOKzVaRIH09ZkQdLv2HMB35kxiR+TabTvskmOgUDsAq9YT4/2k09K4ISfT23XQVp1dIegwTeS7ec1OX+c5lIlJ7rbsZW7Mg4udetLf/zX12FjW2qsna6ILZ0v5fehF8CNv2k2TM2Lf+MxOY++Y6aYdsWulFautHR2R0rJIlRCtnesFIlh+/JHmUbtYseGl05VYvkk/S64nu2ilwJLgJ27baSzR10VnQtcvVLxgInc47hE6XNUnBHpljxpkD0YauWrrNJ9sp8rlmHrKqfIo1T1vWo2CCtqbgl84jTXrrok+uXXTpK8JSfxszzP+zjdjIlV5gao+8NBKJSKwXaXfXRpm/HtdMfAtIlmYSWPvWQ81bYhHJlDwNpZN8TzZCDDhCboJRn7HOTXmbpk6Vm+0PWVe+PsO8CV/tS6/LroQOg28Y2qBzZhX6B4znYySDHChK7N2ywCKAnWMvRD+OuJjH9LQ/aT/l2OnTgJcfzALRS8O9lC4dBMA95MSyZErTR50STN0cUCHhhH46+IfR1JOqrX4holZD0luzvT65iyO88DyE5fRybjuY7K5uGHHTC0n20LXMSmsgZ1Ao/Vb0+Jf9tJqKcCPpqGmhOT24FDlHYFuyn1wMo4DWMPugFJ3zQa6I2q7WqADo5j0qlN97eWx+Lf6zmLCRE64cRKGgydd8mNeXewTXV9P9ghZpJ+TVM7S6LX03S8acC1Wx78jfQUSYQxPRq7TAyYh99BhP57j+glFwMVqqBf6MhalA+CTWCvqZy58QtND/UClkczSXSpO/Wv/kCUb/2RT65uunYSZ3QoSP2FBANQKfD+BBLYWtFgxmS3m69GAGbrRVZ+caXRTYat+MbsOJ9uE4gd2KWzFs76CEOgNz08UeNuqJoiuF3rYyVajGEql2O606rlGNNI/c/3O3IpFlqYLnbzizANOMo0dLl1Phrw6iZ5BZa0sYvuJrNzlGjtsJmtxtJnUI3OlC91ztzb8OqxQPKTrrx70VZLmGcbOwk/scUd6CGui5p1xz9NTaT0L3nb4WaQeC8aLr5hMnRfkiJ+In/H8RN0XrIjLi1paaHl7pl3R5yeeOv2sbVZP9m26dJ3wBB3hVN/xjF0vTGiI9zNqm4YingaocNl21+lnzciMHR4kgU0MQF9Js6yvyzN2Yb/PSe82onZzHp4RaLkVOhDZ3Wd01c0PQl9BFWSVS57kAHEr1sKpnv2yy97bkt9NOEwZoku4LvbFdSqBDXmEjmjse05kp/TlaFW8VHMSJSssUi4qPIpe5Jx18Vkvzb2xN+gx/4RH6Ain2uIZOzXIOhQfxCuBzFWOVJPFsKMhPj0FW15x8VkLZgbgWzoglryeVwy684lNlOVgaMBU6g9E9ptdnWAvl8upVDuZzHdOj7pdkyXQd+4KE+sWQfFX5ob/xED0FTbLvuPlYurSbyfmLukTPQGTRus83/y0q896ahoE+BvlJRKeoSPEYJXL2RUZywxsT0cUuo5FKx63fZjrJ3A+cZ9q09nxDh3uWgz8ziWe1Iqog+huNC8LIWe6sqKr65LLryJtO6iZfeQBlUtIAzi4vJjiaSwKdFtOGjnX+MDJc7QgK7getO7yo7bpstg3FEMcGgR0ePo7yqeKY473Ala4VTF/NWtpJJdcm3Daxd6jmk0Sg4COUE8C1Vg10I07WsYD+m8YuEU75sy4gjm9XdcftUxtQCV1idCgTB30FHxH8Qdt1/rb1HnGpaF27ANbp2n3TVrXXf+NfXEwivE4IfESS0GObOLEIbYTzyGX2o5zcUsIlxCCXAxMEErsmjUJJKVQLukyaFI0IFXW1Ysq1CRINoqlFWkIaDf73N7Lec973mOfPB/b2Jzz8/s8z++5viLRPTCmi926+q6S6vsHpq6Numhk2NTuLvmdQljKTt49PGKcqSuebuEn4nq/0D52vAHn9urenzXW1nf9zMyl5oJcmjlz7dDgSZc2p/EbQBxew0o6fuNMHZzfOqTpKKS9QVMlBqYsUQhIwbeU/koy1f+hwE5+i674ixoFnUe0DN1/Yqgp9jHdcFB6fvMSdGeGp+RXWpC/RGiz24J2m0wYBZ38Gw2yNFBcUx2/MELuweZw3oCyC58o/jEW/BuGnBQuV+3dzXDsaq9Sr1Uzssedmy7zjaRx9u+hKWKncdDJvvwhy7G7c8mkMxPAbugaUC/sKJUTe9Ac+zfRHqeogdBJvrx5N0vzibja0HjsXIqWvPZwucTuJTTlNGGsqYNKY0zHbvuY0Apy3WB7N6S8mqdk7FqRLrufoozYQOjk1BObtZMVa9FQjuJqJgUcjumy9EhoKZazdQ6DvQQ8BTXIwO2KVWohrp8xcLfsMZUGWsdSWVWXl5FgYs5YL+Hphzs8H7M1PR3tFbIeY0Yhp55k4WIlvJScsXsVGeUMGeolwmhj9j3GNsU2AbsDxiyrdCHtnzVdaMogoj+YlXNpv0fisH4DTZ0ngaUjez9nbCwWsDNVHTLAWYwi+QH7pKWzHnkov6/U4NK0rQjdy0gcZgx0S8oBnqndjC2eInamg64ygRs7iDyAPW2xWGwdyH9r9ep8MTlP/CsEuoRRXiLsJ9kWyFPQO4vbxEj9QFnLee/cQHvuaiYtRZltQkmKzp4dEMR+Ay79J4zxEoEWlfrUXdZZgJMS+T9T8sGrHcSmeswWUdJ21Fks6FMnJP6X10zMGwGdL6E6qLj3MWtr8WFpsquhrzSK14ZxucagRZZ0Nfr/EnqcRRIp7LwGJ07KdLDu4XZaieoxa0c7oLH79Lva2qNT2D9sn7VAMolh16IDu2lkb8fvYOjK8xLESTGoZDD1mNHc1d4Bt2tN6btAoHZUET00dVosNOz62RN4cWTw5A9wKXHCYCPXOD4Os5S9nzNit337B8DKz7CD5zp0UfEMdnNd1ywVu5CvNOi2wMtNymByMaWRswcLbi0I89DXB3ezYncMOj3Ng28waeoZwiBFo71I5jrMaQp2c6wkJYxAt80Q6JJzCvWssQnPiWBnmrnLOnJXewgKorqva4yt15683k0taTfZKNixkpQwkiaGT12pDtarYHL147KOTAax4vJdTezeGDtWvPDbtQjvA7vUp8pVhkYXuzX7AXpp2HEpJjcYVlXYaImEhFMHrigD2GPOPPyP+j5cV9/BbuH7ei9OXb2IlqavH8WTKrWHP1CZ2FFIB01n2QZQUFv3a8hNRA0hJPXjadSlWcbxt2g48/ALInboQSPJxZnFG32jo6Ntg303Fmf29prYpZrmK5iyAXGEnMDalUcqAAAgAElEQVQetgQHG8d3JlShJ06QGoLxab42eFeVDG+KcAPIucMfioHgobzuFxCvmyibkHA1NgtBJu0q9mfvwWt9bYeHxDSJa1ORKzC8ARtNGbSxQ6MJOBDTCZ1bQUjsnRaypDtUDoJw725vd/PM1cV7BzcDLwf0kHVm5AHN2J9qDsiiMSwc/pcZPHR0WVTFBqfKXm/YpGPVvry6jGSVhr3RAm9YkJJg1WZzF6y0QTSBp9ljDDInW7F8nS6/2qIwcpMWinRCbvDykc8MB8+xvPr82HbXOqyA8t7MCfFXrjebzYjSztp1VWjRfB2UJdZD61K4X622WejSBf72vR07bn56+pbaEDXnT0T8Dj2Hbf3ZU3507CmkCP3wlfHS/HlPATtEaSdRgxdyM2WJuW3Ihdd+HdAFcA7cEdQAzjIbBGzg7zt42fPm/f1/fff9d/51+zzMMfor+AKTLxkh5mFCR58tc7CKfnVUSsa/AHi3hpHrgHdGZI01Y0qLViyWdNQmfgn615lp3QJ+JBRMTmHqgoUnlpXj1IkdmOw5cuXD26KaQfdcBGLKZIxjdWj70NPnL77++sXzp2NQCWNoFSp3OVHkdorNrE08dKjSdjbC9QodFbGXQGditMQj19SpBVyX8MQydmePH/kzjt6OB8IxiqLv7B7G0eNCYKC4FkA3tiyviA35dipE+JYqsyjwI9sg7DgPex1W7oflnGzQLWFqVFVHdQ+WdOeA9LzmHsmjNXxceeLcHhS6W3IWAj8xWOqZ41aVhVpg5rhh9MhFPV6vNxqT6IkosNLC7t/LXv0Hw7ATLLTOgzvWJrp7SAcBcAWpkw/eR/+orHzzHHT2bvI2h5vYSZBoMoRrLZbE+0pGtzUAeYdMNr9mLcqKGAjUyI8CKy2UoaD62Dmk5+Q3oNOJAbrpOV1HjjdxqPRI2lH1VgG8yhNHboqH79/IthCFeNHfjDMtP3s6pDRzkJWLrjyyyvJEnASuhh4lSIoUw+ydTlB/3YTuuItu5SQTh0m15NKqPtlfAK/yvRNHzhXw+wxdZKYUTwTP0HBzy+vrq6vr6yHJzIXAkavYsEKyJiqbHX4SoLQ2JoXF+uugrk4N6AL4o3M0EjzZOWBWkTq7/EX73r1fKco+ZDESGbwWQiD3P07+tvYlyMo9sSISjsAuVhJZaeX6rI+9qxOkielRiFfxmzd20kycmSY9IKStuvV2UXErL1TBO+C8mWwul8tmsysrK5mkT0ZEdbklr+ywe/CgyFkzQiTQiD1JUPz1JdLZrqOXGMT/CT0nrmBw0xT6a9aSHphMnX/nb/s/hfojPXlexyB1e7ISFnBxLqiHGQ6Y1yQx6EQ/UY8/iFjyqWHhdXgH+/e12aAyRWKq79Jr4nCpaSS9fhEg54aVIGu5aR49d78qdjCxyWAfzwVQYocpbTVL8kSem/gZtvBfdTM0QUtUKQnFxCnBq1cenOJbp6wq8kiIruCmFkdL0hufn0PXPpC+JO/mVKDjlbaJJRDDp3XAQicVIh1QVLtMav4hrQM4Inj8sFXOqoqdxNdiQnqASxQVPJPxiSexAkAXxz8qkjLSYwzMWhoZvATGiOE+bLJf9ijCyPpgySZOCzy+tXRDFToruH7FGRP7ZIpQ5z3CWyUi/f7+yLDXqXQTVvHFyY/RybT+BJ9M/K5G1mDeRG3h0Gvi6ODx0K2pQ5cCxyomDz/nQbAganEo6XRmsa8J9FOg62GZ5FHMw4Ip7HnaqBedzE3q1FQ18LSgA6kkX0iCrgJSR1N7IhngHW00nnlEInbkR6hmiSXAz/MdfDtsP/3v1ZU1XQ5wiLfVgG5DZG6eJT9op1zhNVk4UyAMy+KfnU6ouYmCiF6CvvhUMfsP8sSt1PZZVc9aiolTA6+9+NaPaKbOGVhoGYH7nwM80tMReClV4VAq8F+KEXmdIOK5j7Bl67ZJyzq+Tc1VJTQ8a6kmjqwzDpqbyKecvgRiPwpITwh/HeeJAydF/ikl/CkKdHVMWzyUe05+QssauCHoqroMNXG4yO+eJxOTjK9iwhl1hxcigC15ROSsgostfNyZzOaJx1aAroN85llm28F2nVeUO50WqArbYTPaxBGUxknldWt5gZ1ULIknYElkvjkxMnc682qfXZonhP9mJH0dYRzplHf/bZUvcSZ9FOzPsm2CiVOY6gmShUcCKvESFh8fVbd4hRMpMg9TNKz6wXhEkXSSpYNFXxeUm8Sg/XXUlrJx1MaZjRbe2Lkll0kBLxUoKG5F1M8/ce7R2kY2IOnGhDp0Aro1xH+6imUXBWF/HSiKkfwE0PB6JFWSNhy6GmmZWcbKIrzV5pYCxb35clAbdavqujCR2UMhxC2MY4mvknZ1kpobQaw9gBy7AaOhq+PEKfoUC3Jr0nBqeztI63DOnVkVVviEr2JX0QgxvQYLdnW+Qtr7P08LxLgOBLqg4ceuUUywx9mgmyP0DUSSPnd8JUegNytJdQcrEGLOx9hbB22I3bqFlrIDHzEhkUSn4dDZxbKOlwW6jQqVm6RG+mPTPk88s5JDSIpQFqqmEGKN3THzSEenYvG/g2AowQUfJjviYTfF2BX3cbsZkMv7ArSulBF/Ynja63F746nMSjaby6WE2/t6KIRYo82JvA3759RSGqilcLbNNXbi3ouoNnJZ9zQcVpw6/eH9/aeV3VPtrf6WRGw4lYyHW0iVCYQQ0ycAwMrgb5E3/8eorYwoP+naNGO3pmXnMu55qFZy/u0rfE3t+APNbmKKqWtlbSP+kcp9E1S8TfWTm27sWqnxv0CA49J0/IO3bt3+4+UrUj2y8vIpejMxLfZPsJq6H5AvYCNmAKDqZ9emkuIecYtenu4gvFKx5J8XKjE5/hEVuxoKq4szsrptW1XuXk/SU3awo5g0HDqe1ccU1WeMoHmkWxpv/6VSKR+fRTs76uH2uUZ1VqcRSoC7dbCr/0CSnRTGQj4WcRTGG7smIduZozqIpGhAzh+vJMmFy5+cbeBfdGT9/S937dr15X/HG8GsnVoAqxFKpEisjmd28uDJSAU9Zze+qaS4WojFshQHURGTfv//E3e1P1EkaRwUd4kv59veGi/u7bkvt/d33Jc2Ek2Y7sxMMhOHYDY7TBCRAPPmCJhANvPBhJgQspNjggjscRjgNkTkEzgIkRAIrBFllQ/GcOEu7JKwavx23V3VVdXdVdXVjaPPN5zBGX79PPX7PS9V1bNMAJZtrrrdjX8cUF/fWPchex1lE4UikEoQi9Zx5u3rrdwSgJQoKk+EwDw4M4n9z0/k2MkcXupugzmzrPHzNTVA/u0jbL2fhV1AJJXAgfcl+87EB9yzjCQpVcwKgC5PqpmVo9+bzN30SQOpTmNIrxmApw+wbPlMNqbQqSIskkrg5f4PnJs6+Q0NOVBMUQwidugMPVifnxkyt+fkWYCcPprcWzm91gnB65Xs0K2/UeBIIE2a3BA8Vgc1w2j3w9bzTrYyS7t0ceRJy7c0Yfdba63xB7TkDKYAHDulIafcunWrbwp43rL24rDPYmO0kIXShH8VAL7L4NAezq3ED7jzx6YawLtf7IAPXHlO6UygidLqrXVfJfwyK8jpVm9pBrYVTGnQyTkrdL4OiteFRVIJHK8H7bcSl5VyI5ZIxgLFFMXgL3lgrZ38+ktNvfH0Hm9qKMDt7XLSgK5Oh24GLHn3tNfyNujWI3aeiDp3/cl4PUa5gf0jLscSMwBExBaBJ/T4ufxPU8Htf0Nn6i/J2OU024EuWKdlYdowd06HbgnswujSXtq0QffG3k0MCXT9CX49dZIC3ef8/Xlt1IjtKFLE1mJl9+vzppohVPBpQXhswn8ZhNIkO6AitwJHupe0V7Zt0CXsBOtnq1lazH1CQa6kDI2eUKcHfqBybLxIETt/xcCt9Uz9P3BN8yWhcuFRwxe7YMTeHlkrGDsxCtorr6zIvaaUiRMCXURipafFK8mxP3E5hozYVLEi9tvnv/3+31+aztSTO51uTpJA7MBvlIMRS9qs9oityO1E7LXOkEgXEeevFH41c2y7QzIWLyZPgIhVF43aerLNr/GDJQInYYK/REhiaOMa0Fbo+ik5rFDqj1XtESpyJSdRJ5ualLTSOLYIxRP418i28jmZkgL7DrwwfO7chGXP1IjmuZZ3b1PkMORXh9T/MqV3bbaD/IMrsAdEd8cTGX+Im8fSj954aVv0fdsAXuWZkcMim9Gc1PLuMCWBDbErbTSn+Vs5Azq85el+DX+6M7UbnsgojBaBZQDEnHJt+SgGjwx7BIkC26gdujFauQ54eHWtYNFkHwO5kvK/cImiidiqvhue0Dgt7bzamY2KnG+nEbndlAm6vPqPG2Y1HKX1w6LstR2TBFo6SstY0BG14gZuN02K7YIn9BjpSDn4pXO06vYIrXZZE3Q52++kaVNOMF7/JXa0qfXudZO0O8GtAeCTKqQ73nlCixE5xI/0AMIOOOAGAznfOliAlWWoT6rgNsdhq6PuKBSOgEsDv1RHqLJjbOjwZWxUjUgkY2nvPBGGtea08x4yJRHQF6OWVyzojDJADrhd4eqtHr0AoDV3Vsj3BagFYpGuP3aYr8s50H2Mx+evcKVdwDtPJIDXnb/DBz0UCGSM0uemj23g6OFrXZrb9epp7DLY0C1vWpLXKKsVNi/WCTP3X212gFt6qqfIE9c8oa/MIcHBCz9vodMtB77QmiaLQQUgp5VRLClsjDozIRKvOAE9sZ8LHc4oGmu5RBH0zBMR/VwqbZl0/lVd4t18xYPOB/Rqzz1VFlfq0K2o0F1VP2PdnLzGWP2cBrFJE1qlzjQGsJd7Rs/P9lG7O57yrLRYsEfZusTqdouq2yV16AoqW1w35WFa8mrnCGPUZF5MDstH+dARF57SLj5CRCH7PfOE7nVxIY/VA6qR73Q+n06yct2PqtuNqsiNqhw7pXGLOXn1s/qv/HhtF1EmwPaf4rodIoqI5/5EBKcjQYEBWbYwMWwYfKOkttpll3R9121KJrbpbf+QwN5hInE/7AQd3n9CdTv0X8kprxQbxUtlUABkOe8E3ToQXg9xEaCq10QudI4wpmDnxZzugCNypCy+waPqs155IoEldVCggtK47gSd7yGqPRlFgCfkEvmaMS8RdY5XwumOOUOHx9mpJHvDtti5He7UfEARQR3oVfml01rn26k2+tkTRLkuR3BEJMScb2oQo9fT5QLQHf+KV3tCDVms7DxkE1EB6ELoCW45OR4otV/sRW43SMi6fsZsWMw5Xokp6j+ViNgRbkrRYFN2LnnCj8sHYtBJ0uUVPnTb4HnOILfLYVn3hjG2DquCvHitaXHndKbVro1TbO7wyBMBPKUnCp0kt0xysQPl4r4fDbd7Kkn3IYckqJIOkUS7UPYqtNKZSVa2FVBqmmx9MZepWAYvlEFnKkbf5DEvkYWNxXGj5HkVaZM0a4A46lhvqsVl8QPlgtCVHeLV7S5bp8WCrqGTMiK/aTk2mAse+FJPYUu2WTa0ybbCmOTMcKoc9j3Uh0tEDacUlKq9oYrlO95SsRCeb3SSxOaKp6ywwYOy+Blwu7fqmx+hfkSGPbTOi1diW8YfhZErOYkz2fu1zE543CPFKkgUOvlrJmo9+4oF3jrIECuB2xWMqYnXrA2wRutoSKQjUXpUHDqigGIvPhn9XK3m5oliI6BwIhTqflup/TE9uwANnutgEmAGEuy2wuAIgyQaWf2cmia8+dWpZGJp8HyDBUo9a7Hze6TYBCoyC6ySIXt77HGOrU/yuts9gk3YMHOTSZSpIGrq59saTLvPTpW5gY7oK9qZos0qilNFhE4FL2YD7zJFJH+HZHG3RrAbMFyjZzkkYdsqUX+j3X6e7+lPXUFHdClsehuNwd/1RrExd9BpnmcNW6Xx5TZdn4xq43Ygg9XCVc5wdjZZ5pJaHzBuVZI/2e8mYstw8anxCl3ZIZ646zoTS7vEnAJe9cYmpWwn9ahuNw5YIsbc6W+QBDENRzsAGdteV473mcSc3mm0bqFwDV2Ha3cN+e197ZYtsjKwisbtJtXHDcRwJMSpyeCOac1Qg8zflnfisAvo9nzJPFy73Vo86XAJndzhJdJtbKsojYTrwfqJ6nZ1Wi7xhn1GgjFdAE8Na3pw0/mU9xNu/O7jUhyyTdThk4Q3deIhYFlhKymE68FRxdEu9V1bO1HmbnWUpuj1yPpLYufkf+2GZ79gheyQdQYg/n6go0oVRap+nFs36uia22lTTpt+5pZrpExk1SF+aGAgNZ0fzL8wPSk36u7k3xlXWDRZB55S7ws6qudJity4MamiBy/puKDmQKvs02DQStdwZoh13OwwKF51LpLba//qArs/SwxhDHnCWLJcQhDbDXR08NTvoqJXiVWzwuYINAt0iQXc3BIa+7mdx//8kRuWPUKo0FpKubPfUwEgsTvozrLOlpWqBbYN4wP0WfbiiWlCtHDBk9vtJ0K2jVI8CYuqk4xlqUnvdhI5E3O8dY1aGg4k+L90bbLXepVD1zXGHmK+HcYsSxYF562pmJM6USIBU+Ukvfsh7pA/yt/mrz+uUCYT0M3vD4cTDg6nPJydqrDbsvGUSo+7wW4fdblrtVJs2rlElwjhH7zpOneuFz4bCEfFLgQEUL9Y6Kyg2wxzPydXGH9DLHcoIbtipVgndaI/0wBWVf2eR0JVN8poPqQ6UTgWY4efEo5ILmx6JFvBtGbjNIG9e9xgd/QUoe5QtnzTMqGYciZVJBbCeDxPpOikA6WhFI1GFKkoNrfIwU2zpLuWov2UMaLsaaVYJwxgvh0xhg35zUQVLg2tRNGwIu1i/l6FkzUPuK+0WxQKSmbbLFmso/sYYioR0Etl8l37r2mAqXi9D7iw9Y1PVQjYoPMIOzWpOE1QRau5WRQTFnaovSUTTdwgQiwakT6ADcw2VwhZt9hMrH2S4hCxwa3J1NyNiJedzFIiOjYWjJ8NxKKK9MFMWWN43O23S8lClnLZlOm8RLGErNRKs63WQnGHSA5hOlRb1u52kT8ccNJAcsKOWnY2/6JHUiqXmu17zmxH14mUjIm+rNRQS1MnjmWn0Ad0L6qM61u2bQV9O6pf76Pks+yI3efS7cqJTgWQKI0WdeIk7DJRj3/itYG5F6sr+bXBxZGF2dlksqBacnZ8YWRmNL+yOt0nfOHn5Mh4Yamrd2l2AB+RQu7Ja07CoBzupgVxnbHBziV0JqrQs9kWizrhQZdxzICsHnF1bnVycKGw/LbTeRlv7u5KLk5OW68zjiTCYb8/gG+4fGIRaXXnTLton0Fs+pboHzPqMWJVqthrlnftlq0nbE0cEIftet1qfjHZlRWkPVNAnetNzqxAhwr3x401eAx9+gK62BKC1EXsK+uEgxfXZ1ifvew1YktKPiWyCul7JOzCTsIuIILZhbnKwdnlrDEJ7B65KnAQ1gjI+8mTHZHbrZk2t6s2gnaCVvVCzB9OMD+g+YJHjrXQrHTje0t7IiimSWzW8zS/sJT1AJbFJnToCvZDMdGU3jAO8R50ZACcPAaX0/YVeN/jIesgMQH7nPyTjVkWhdeKTcdTKRgwciQRC2vZVdTQI9enJ0eWOyvekQHoeu3QpVCiit8MbhicM05beKaT/8ACf51YNP6jz9xDR46OYbvLSyfiY+eDqXg8FbxLnCoT12e/xpsr3qUB6M5dtEF3xxBFF/Gb74FnB2dA76mheOFRwen7dHmqsxsS5QsKdCluOtERPK+CZr3eI0Gu2u/EqiaIaxf7bR+mG1YikCieAIp9MjLbK/Ac0WL31Ukv2B20Q5d2SCdo1ypqZafRimJ43f/ZO3efNrI9jo+N8frJyzbEITwMhA3ZJLvZzW72kb17l8ZSoikiLIhERCzRRBQuyZIARQoKOjfIkiUsZC5Q5MpOgS5QgbCMkJARCImHqPJfpLuesWfmzMwZM4+fsRnPV1GkSAk4H87j9z7nYnTsPbUktDRywtbt0uh2lNYV8wOfdpEJNneVJ/ZB/HIWdevFYdEVJwAei9Gx98SUcPNtCYYtxKYyW59OTo4Tq+uYm2uSzY31EKrY+YTs/nO1J/Ze+CwltRDOy4IuIUb3jvmkqwiGWabymHsSORXhX/37q4e86MD2uuTESZluhYAdW8de0hOby9+1rziAVBNIEvasK6JbFaNjr9hj5O/TGe4VZKDR16TYozlJr6HhlCXWC7fAsHutoHaCAkhtX2oA38dwOdAdCNH978PzkNg6KVgaQ1x3z/b+ymJeK8m9/U+JvAu4VPBo0M8YJSPqwuxS7NgnKOSXncy9o7M88+VAl+V7E/Q7XYwrNhsWulVn4llQzNcT/2DnyWNth53ornijouxkRnDhwaE7Q/zqV8Wn31nrBPlhLdOG+YGSKzZG5rRYdkV2aAhq6LNydKOCC0+7Jovo6NU0/P79+3cf5vizEfJCYyLJYvFsTMEP55Ct8VSNjrA1id0JRcVO1PGTKwc62k+YwBc28azwT0UvdkPud9gmyTWm7Mlk08CuXuROKMpGU8dPohzoyI9idKxNnBCmuM4xMwOlFGUMbkoOQoO6TIJabEXoqHDKaVnQjZdAty9MSkdI4RQtaVFzoi80BE9wVdpqKm+oYoBIWdCtiEucZtg8DnJy0TGWcVLyisV6eusw6DyCGQCK0FEn91i4HOgiYnRcXy2SiogW3Frkip1cSCVOzne+5A27zNTStvioQ+4JiyZ0DoEnpgjdMLRhx6LbwzTohDABgPAY0siY/2P0QpAfSh4fbIb5Rx25yXwlvyZ0NhM/O6EIHX38LJQD3Q4GHZueyAqtkyxzxX5dwYawty4neZGZIt42Qpvc/LITRehmoA07Fh0VBn8jFeNHAgAvzothJ7K4tCajsc2jw92p7EEql8usrq6m0+n87+vL3H4lyWLa7a5GdIN8J1YROvr4yZQD3SkG3T/i9MSLFy+L48c46yR8hWmS16LsaTElFeBX7CirMgwBR+xYdJSpG8L30vEDAAkmsyPHOmGC0LMq+mNLTLv/Rw066vj5Ug50cQw61hNDL3XaJj4lRVN58fU7iK+ivNxJJDu/FFsZOmoPTZcDHT0gWwodeqnTKdsdqgN0PhqNLi9vb09OhqVdfy64kFenRnQufjpRcddJMLhdBnT0PhyVcGKDR/xJ48Gk8B2tjY2NWCw2X6BJ46R4Fi8JMgVi1iEdZHTo5LMydPRC2CwDugsMOq4AYZ05u5ZjNIZZUkJr9C+GJ3oa5DWokRzXFvBfFW1i9P9mFz5eV4iwz0ihS3MvZtHx5OAmqURJmFuCS2i/UoGONuxyZUCXw6BjndjgS8p+Kyyigj96qITcZfGrtGtF18GPOinr66QNu3gZ0KUwzWGcE7vDPdGWZSYtyteWqlLsUiUoatDR2Ykd+GRiYTFJohvnOBSq7A4UkFsCMoiRKTLv1I2JybuIZUBHL6ZhzM8pyIRKeOgyCtClNZTr4NENfVAzJ5Z2jqLw6HZx6Lgy5jOS9xfpiTIydVR0Jfo071eui+eDmrlOE8CxE8aAOMR1X3N1peuCVXdc8BIWDqfWc+nE8f5OJDk9Pju7uBI5j2d20Xd715j6Oi8Bh25OzWDnYWEQCAjdAg4dVx6ZEaALfhybHQsh47b4QadPl6LtKvlEjAK18NAp7TEcCcJWOzHo1jApMaRl44LZfZnzK6t0p/fT3LpLhTTnYMWDAQoDxRSOdSrYWqfw6MgxTP81NxQqTu/Pg/PSTRxjkU/pLO/F41xI+RDAEg3abIv9ZxVznWmDIVkGdNOYMDHn/58fTuVOSrZaJI9zl0IfYymuZghgiZJ29oB4O/dZ+Wun1I9xCC4AEEPzOm+eS/n/VyiyeoTxZ1Nc9L3NA4HOgzbLKW8+fwsbAIihyYmQmgaE/K2QFXPb3E2gaYsuCHKEnzcI8s3wcxWGXRYe3SkmYDeDR9V3N2D12b1er93N3KiZqaPizbC2sHuQPt4b4/0Lrw0EHVEn6CwaUR52SsOji2OiTqMiagPejkaPDdtpHhqfXllZnMVdJFY/DDnkPVlm244oNezgrth5nv01I+mJUVvE2SE8sWw+ORvaB0UOnePBTmWZUWbYrcCjS+HQIW1qbT24/jhL3ZXg+urNUOSIZtw3mJhRYp0El6HRrU2JQiczw8g4lDaLjBY43Pg6VzMBKC/2m0yMyg87wXmxURJ1YoeZQQzDwikxkon7Vvs9k1SPaW9Ti58AlSMgMddmVG7YCaxnJ8yioxN+w9QoBmwTbqmCTH/r7XqXtdvNIXR3W5s6Gh0EvBxeqck2ozKtkwT4qiNnSx/1csppHJ7m5tZmj8VMlFGdAdXwXoMGiqPC3IuEWoiqka3TZ1IHj7ZOxqD6E5dJtExMUj1EVclTP6AGXsE72gBHVyKaVNdlI6pMtn4X/m4vZaqMBiErxbZJtGAHa5dZ2/1ENcrRcRf7gUt4GEFIV4xDF8eT63UQVStz+z2JfTtTwjrZh66cINneS9OTh/e/v69mNG4l4HXjf+JvsS+u09bJeBgaHVU6Yfrxr4cPCmFeN1BhV6VWHkVvBmudBGNANjHJK534gWTqbZ5AVTtcA7wBqfvtzcTIqDh2C3VPkDz//zv2jz9pbMSsEngUvmGW3wjoPbHBK53g0P1Sfbawqm1bvDjeTrweHhkpoANqZA/H0ATrEIfu+xu06grwemVPCgPyJ1h0Z/xVdwSaVbgWK7nFKZPdV5hVxwbsDvnoyLtqp1hVUP12kxx0QKmded4y+4FD9ztYqci1ercNbhkj+YBDJ3TVyc+k8J5wEjdM/nbrVeM494DRbQrQ/VyMWtqIGyfPrUDp+3YZNnSyRkXU/0aqHkwQPayVUvMta580u0PgqBOVdX6AJPCf3CzrRLxzOxusEgdfBjh0Mp73Ye8j6B6qmNpfdQaLp7Ojx2sN9N7r7nX67LiWfAj/n6qW/hVBdx+uMK5aQNaBGsWc/7+SX3W/IOj+VUwjmvXDjmHa+j8AAAv2SURBVB2GtwnrxFJ5nd/QIq87YJWs1SK2RiYF68RG8qvuIVro9fhmROyUxOT7MM3RAE4slRL7gxTfEz79oGNLpRbDoJ7YTjA49BMpviduolEsJbZBbwPUnfiS/4q/o+i+UzsCvIotZdycKtVn3TIydGLoMXpNMP5El4527CDXawnoTlAlsT/yCoLrbkJSTJmaIA+7bSSHPcRH91jTeNKqVAtkuDOM5rD5nenF1I7Jrx90/jbIw24D6fg1LaHofit+m1YdLTum+vkE0rCj0/+PUHS/3phcrHwxTfDjAG4sm52ga9ifYQy7m5WfuCoMihmPptmwywiSEyT5oPhdmnSEjugGjNlF0cqJv3HovHpCx8yZ+QJo2NETTNAwMZvGtusJXSNggmISmZzQdx+36nSFznxH+FSVdsOOTv8jYeJHTwN6POvYeWQQXQAbXNPJ0J9Fbs+eWvuCQ0HdRewIbuRHMgwWdqLn5v756NGzfz/9I2AKhrhEcKOu0FlMYIEnpmNnjZqIHaK/Lr9yo86sK3SEEy7KvkzyhpGKpK/9ysU79+FiJxE8OavOFh0b7wQwT8JImFgsp4PQm5jy2V2wK/YEA87UY9YdOdahiINdsVviTh1vM6FDMQ7F4iSUF7sqaKD2dVkIXcrGVPEsQF2xB1z/9ID9VqOZ0K1cvBmkAF4sMz442Okg9C1mrlYECt0Sg86mc3KE2Q3jULBhYmbKfJDQvZgJAjltbhhb6kQyb2qadY+OySnuwIAjyZcQDy/drB2r9smYSR44zjrx6H/HujSFALgxzfxxzcFgv/7RMXdsaD/1VWHcLrwcwwxf1mHeVWrHIsOoVuJZ+ft2W7BTC/G63YuP+su7XuXHMviOD2Q87D0ZFS+4tcvM6WLwZvT7w/hirZgmnr2t1GE0LJ/b2tF64nyRH2eqgVVnk2qfXdyJZ7IL8/wlGN7mc1s6O0i/3Buv+lk65Y0VS/WRTe/txy8yqezU5eXl2VRe2fWDVCadOD7dSUrOv+rz1AI6iykIr1q4JQiuXAxQPnNtoGsBJ2evEXKErWEQFFxbh42oGdla67+FOvFMLg9RY7Lcbgr0aQY3UF9z4Aryf9Phct5RSc0d8HY024hals3S2NXgdQ62ydqe7l6nvelWe2ezgzDEytHc39LeUd/Q5LL7fFar1el05n/32b2upob6W123O7/xOGwGJpUL1EBgyJAhQ4YMGTJkyJAhQ4YMGTJkyJAhQ4YMGdIss8PT2t95u4vK6Hh9ct/ZsHT1NDW0+GuWmrd30C1IIsqbsmFxFaoH3F21murBlCnKQufhqlZcZgOdAnR+9CWuhtpE52htb6pTjo73vrSpEq3DzdYSurZBoeYepehsfNqVWHatpao7ru8D2ZwK0XkE4yVqFx3bwSMXneBzBypx0tyu92EfhjB12xuusenK7FaGzlL5VUfvln6v8EWcQMt1F2B9q/CaGKiW6vV+fnFg2/XPbHAqRNfB+7yVrOtsUPxweYXRmdF/UNGZ4e2VvuuVoiMcVvZY/n9755qmKg6EYblH5H4TQfCotNrbOH9cgPvfy4AKpEIF0rbaM/M0P5sGzJtKUvmqkvzsxlfBT3cdX0Y3I5vbVEz/4fNM/oPomgUEeZH9ePr6fxLdv+P6RfeL7hfdL7pfdNChMrJ8s8lKX0Cb7aVv2U13VmTtCoM8Hx0RuudvHCuKvHRikklC91pAN7w/6pdl+H10qyzqdW1p7wUAH1H9xA3yInW8aK4f/yhrqbgLHVY/vVccVRTdbj64yrru6BCQvj0p60s3najvuUG2SbWdNY8X+w+7um+moKa9rFzNua5gmFLHZK51ranoxfgcQQidbw0Wcdk0B38owFw30AiZRdd2Jojuz/CFRb+lNnV57RPDw2nXV5vXmF9uoXG0Qzw4GVjZBRM7MgigC+fte7dzSqiy+1W8HHSBLbBn8EvRhQuRHWTViNqDwbYHFvAoOrJp623bnFmzovSCuP0V4dFG0KXYGc+ZEDq11I7ABLwm6oocud2hsz4QdIaCrXhnO8j+v+y0WSlqlpEk0vtOoZO7gzb35kBrOXY1SAzGJCzi4CtZVdFhwmjJr73DvbTETz856Or609YMOhdfbstsAWV0/7XvfpuvC0hJE+jkjojUnpO0oupep2oQ7mFiXZEvjzp7SPFOFN3qVvVrDbQw2eGhq8ck8Kl1dm0uJ11nmv8HGOJUBQuvEW1ahZ5A53W3IlTio/suYHeNyezzpk8mGSiRvRJEd5XDLhZrpSTmouvPU+2k0F0IjAjpNCzO/kbpZOxjHB2l5vXxioQjKx+YTW/StnYTMMoFYuiM5qETEiVx+egI0+HFIaaP0mfvELXC/txZyJ9H0YV9Z0EdHSpXuDgK/n62qVJrI3IqB9218aGexIqPjhmDNcorpoesD1yvZxonaUxVeRTdHJfe6a1KbKrjoHvlyqWr9sIX8XF0Dbk15xx6iY/OAljpoRQ0War37P0Sacm4LWFt9/aD6AyOrQC/wcXRwTLR+SV7AXRGTe6TlxQhiA6e2AEM38fLEjFuS/1M9SC6OSeAEnMeWQu96WMaXeNV6NzgnCC6P/wR5IBXat833gff5ejGvSPoQonTuUeciD0fnUdbwyS6cjkciL+L7sBpKXAWIs1L2vLSKDIfQpdyKgqAoNsfH93uK+iyalzEeQhdwkGnD+auXimYLjqCDrz1oIah7yfGwS0D0GAVEXTOF9Btbmiq5C3oPGyPLb0Iv4VOFtry5rx8MrrO1vfyO9BxdoW7LHL5cXT++QfQ0TNf5x3oZO6mcEohP4qu/AF0Ml126fAGdMPJW3+dXCiSl24ohg6mVKQu73oiuhhKo3/NN6Aj0cgGXGk33ibx9bN7KmteFJ3IkoZvo+OqcS9EN1vpI7+glTfyarjBpSi6/CfQncs3oJutRuzucvtXV0I+KdrXFW9Bty6hCSjqG9DNSG5z2e2bBgq2or4kk+iSL+84/W10SjILYSmid6Crh4BU4bELBla0Q9FthirtF5IWn+LX5ROxjJegq52UIMJNz5qx2+4v0LG55Mkdo8LVc2cT8/FYxlPRqWna141ceojtnQaztf1Q6qsvlSt+nf13oVOViWUoT0QX1n4p7QGRJN0ifusWzRp2zlwpLZuIoL4IHTs3yl9pdUjBDCbuLrPoUkx7g1OfFWj8Jyy/g/iW+XR0jLkPmuwT0Zlol5DRs/eKbbBtOAYuuWIa5W6qw56Z+/MpeTo6E0ZnYvIydDIe4Q8YZdbD3LRkbBRVgXaiDKdFcgyeehY6dvqcvwwdueCO9xZCyUBsHpGrpIFCpsHaZ5WEVUNu7T8fHdtkw5c5J0vk/fA9Tc9mLs/sPIwAuxqKPCu43HcO5dNwC9sxWQqpxEyQCVvoREw4ytJJBjMy4jLTU6pPboiKMjMb5IQgAmilgt8fyVgkfYHIUz7M2jgFVDS2WDOIQr5PQRfpAhMh6LHoyJOCaFcdfIY5qJ6uh2rFVYj6WaWCpz/pjFm3DpPTlp/QxnBCI1AuIxWfnFJtkoFcR4Etv0/TQFZvyaDf3xGeB9RnfRDohVY53vgZ6waBajjtBkNen5fTZv98Jngn3+pebgX8EpX227ec2J07nJ5I6+7NXS3MSKjBUySUXqFWLSbFLWsrWS2gWSub9o7PHKqgZ+rtMw6TehaX7XfMDDZzqc+eXOXwdUp6Pzeg65EqTUYkPLslSoJbma1ElsMAZGp63CiQf+SqCn2SpqYjE8Dl8XDVCDEJ+2/d3eQxMu+ptvfuZJhj9pGmOjZLXy7ql5XxJyIZna5mYg0Ot6jx2ztmKP1b3KvN77qxE+WtGbgSv3dH5ghygc+LL5GK5wNAryLg3rI4NXJDZw4pebxDjQruMVtxPxagt5rxfdP+emlhOU7UGeJSA/ZkOsM413Yq+GOmQ+LSPOGlUjwHHSuhNK3l+ej0RgghbjSkomiDLkxNj1RvIR21REATIe5uL9FPpfC9voFe6jUawrsV4nfaRQJkcCPkfKZ5mYrfuba4hH9Li+Py1k9GlJVLe6/Ezcksi501n1vO5vCFfZFWRlZojuOk+eF/ecoICctNXT4tzQxI5R9wBADWM6M4owAAAABJRU5ErkJggg==;" vertex="1" parent="1">
          <mxGeometry x="529.31" y="300.5" width="55.19" height="90" as="geometry" />
        </mxCell>
      </root>
    </mxGraphModel>
  </diagram>
</mxfile>
